<svg xmlns="http://www.w3.org/2000/svg" xmlns:xlink="http://www.w3.org/1999/xlink" width="1920" zoomAndPan="magnify" viewBox="0 0 1440 809.999993" height="1080" preserveAspectRatio="xMidYMid meet" version="1.0"><defs><clipPath id="3dcac84baf"><path d="M 433 345 L 554 345 L 554 464.894531 L 433 464.894531 Z M 433 345 " clip-rule="nonzero"/></clipPath><clipPath id="9c3cba3389"><path d="M 565 345 L 700 345 L 700 464.894531 L 565 464.894531 Z M 565 345 " clip-rule="nonzero"/></clipPath><clipPath id="1bd3b36f7b"><path d="M 751 345 L 872 345 L 872 464.894531 L 751 464.894531 Z M 751 345 " clip-rule="nonzero"/></clipPath><clipPath id="4a2f1e3ee3"><path d="M 885 345 L 1006 345 L 1006 464.894531 L 885 464.894531 Z M 885 345 " clip-rule="nonzero"/></clipPath><clipPath id="fc95360e00"><path d="M 886 345 L 1006 345 L 1006 464.894531 L 886 464.894531 Z M 886 345 " clip-rule="nonzero"/></clipPath><clipPath id="bb374cc582"><path d="M 712 399 L 738 399 L 738 464.894531 L 712 464.894531 Z M 712 399 " clip-rule="nonzero"/></clipPath></defs><rect x="-144" width="1728" fill="#ffffff" y="-80.999999" height="971.999992" fill-opacity="1"/><rect x="-144" width="1728" fill="#ffffff" y="-80.999999" height="971.999992" fill-opacity="1"/><g clip-path="url(#3dcac84baf)"><path stroke-linecap="round" transform="matrix(4.969579, 0, 0, 4.961343, 376.493951, 289.704586)" fill="none" stroke-linejoin="round" d="M 14.047615 32.727741 L 14.047615 13.663157 L 33.110472 32.727741 L 33.110472 13.663157 " stroke="#009900" stroke-width="5" stroke-opacity="1" stroke-miterlimit="4"/></g><g clip-path="url(#9c3cba3389)"><path fill="#009900" d="M 598.570312 345.210938 L 595.15625 351.566406 L 568.753906 399.472656 L 565.339844 405.519531 L 568.753906 411.566406 L 595.15625 457.925781 L 598.726562 464.28125 L 667.835938 464.28125 L 671.253906 457.304688 L 690.976562 417.613281 L 699.828125 399.628906 L 679.792969 399.628906 L 629.320312 399.785156 C 622.757812 399.691406 616.71875 405.632812 616.71875 412.1875 C 616.71875 418.742188 622.757812 424.683594 629.320312 424.589844 L 659.761719 424.4375 L 652.304688 439.476562 L 613.171875 439.476562 L 593.757812 405.367188 L 613.324219 370.015625 L 654.957031 370.015625 L 664.664062 389.902344 L 689.667969 389.902344 L 673.902344 352.1875 L 670.488281 345.210938 Z M 598.570312 345.210938 " fill-opacity="1" fill-rule="nonzero"/></g><path fill="#009900" d="M 724.433594 345.054688 C 717.929688 345.136719 712.082031 351.117188 712.164062 357.613281 L 712.164062 389.933594 L 737.011719 389.933594 L 737.011719 357.613281 C 737.09375 351.015625 731.042969 344.972656 724.433594 345.054688 Z M 724.433594 345.054688 " fill-opacity="1" fill-rule="nonzero"/><g clip-path="url(#1bd3b36f7b)"><path stroke-linecap="round" transform="matrix(-4.969579, 0, 0, 4.961343, 928.808287, 289.94479)" fill="none" stroke-linejoin="round" d="M 14.047909 32.727354 L 14.047909 13.662769 L 33.109979 32.727354 L 33.109979 13.662769 " stroke="#009900" stroke-width="5" stroke-opacity="1" stroke-miterlimit="4"/></g><g clip-path="url(#4a2f1e3ee3)"><path stroke-linecap="round" transform="matrix(4.969579, 0, 0, 4.961343, 377.020036, 291.342339)" fill="none" stroke-linejoin="round" d="M 104.909278 13.373995 L 123.994143 32.392127 " stroke="#009900" stroke-width="5" stroke-opacity="1" stroke-miterlimit="4"/></g><g clip-path="url(#fc95360e00)"><path stroke-linecap="round" transform="matrix(-4.969579, 0, 0, 4.961343, 1514.68505, 291.342339)" fill="none" stroke-linejoin="round" d="M 104.909672 13.373995 L 123.994538 32.392127 " stroke="#009900" stroke-width="5" stroke-opacity="1" stroke-miterlimit="4"/></g><g clip-path="url(#bb374cc582)"><path fill="#009900" d="M 724.433594 464.363281 C 717.929688 464.28125 712.082031 458.300781 712.164062 451.804688 L 712.164062 399.886719 L 737.011719 399.886719 L 737.011719 451.804688 C 737.09375 458.402344 731.042969 464.445312 724.433594 464.363281 Z M 724.433594 464.363281 " fill-opacity="1" fill-rule="nonzero"/></g></svg>