<svg xmlns="http://www.w3.org/2000/svg" xmlns:xlink="http://www.w3.org/1999/xlink" width="1920" zoomAndPan="magnify" viewBox="0 0 1440 809.999993" height="1080" preserveAspectRatio="xMidYMid meet" version="1.0"><rect x="-144" width="1728" fill="#ffffff" y="-80.999999" height="971.999992" fill-opacity="1"/><rect x="-144" width="1728" fill="#ffffff" y="-80.999999" height="971.999992" fill-opacity="1"/><rect x="-144" width="1728" fill="#10b981" y="-80.999999" height="971.999992" fill-opacity="1"/><path fill="#ffffff" d="M 462.523438 428.003906 C 464.976562 420.980469 466.3125 413.429688 466.3125 405.570312 C 466.3125 367.996094 435.847656 337.535156 398.265625 337.535156 C 360.6875 337.535156 330.222656 367.996094 330.222656 405.570312 C 330.222656 424.160156 337.683594 441.011719 349.769531 453.289062 L 418.792969 384.277344 Z M 462.523438 428.003906 " fill-opacity="1" fill-rule="nonzero"/><path fill="#ffffff" d="M 450.09375 449.652344 L 418.792969 418.355469 L 369.773438 467.367188 C 378.441406 471.371094 388.09375 473.601562 398.265625 473.601562 C 419.027344 473.601562 437.617188 464.308594 450.09375 449.652344 Z M 450.09375 449.652344 " fill-opacity="1" fill-rule="nonzero"/><path fill="#ffffff" d="M 508.179688 440.292969 L 508.179688 368.859375 L 543.085938 368.859375 C 546.695312 368.859375 549.992188 369.402344 552.988281 370.492188 C 556.050781 371.582031 558.667969 373.109375 560.847656 375.085938 C 563.023438 376.988281 564.726562 379.300781 565.949219 382.023438 C 567.175781 384.746094 567.789062 387.738281 567.789062 391.003906 C 567.789062 395.496094 566.496094 399.507812 563.910156 403.046875 C 561.390625 406.582031 558.023438 409.203125 553.804688 410.902344 L 569.625 440.292969 L 553.089844 440.292969 L 539.105469 412.945312 L 522.980469 412.945312 L 522.980469 440.292969 Z M 541.761719 381.617188 L 522.980469 381.617188 L 522.980469 400.800781 L 541.761719 400.800781 C 545.09375 400.800781 547.75 399.917969 549.722656 398.148438 C 551.761719 396.378906 552.785156 394.066406 552.785156 391.207031 C 552.785156 388.351562 551.761719 386.039062 549.722656 384.269531 C 547.75 382.5 545.09375 381.617188 541.761719 381.617188 Z M 570.996094 413.761719 C 570.996094 409.882812 571.710938 406.277344 573.140625 402.945312 C 574.636719 399.542969 576.644531 396.617188 579.160156 394.167969 C 581.746094 391.648438 584.777344 389.675781 588.246094 388.25 C 591.714844 386.820312 595.425781 386.105469 599.371094 386.105469 C 603.316406 386.105469 607.027344 386.820312 610.496094 388.25 C 613.964844 389.675781 616.960938 391.648438 619.476562 394.167969 C 622.0625 396.617188 624.070312 399.542969 625.5 402.945312 C 626.996094 406.277344 627.746094 409.882812 627.746094 413.761719 C 627.746094 417.640625 626.996094 421.277344 625.5 424.679688 C 624.070312 428.015625 622.0625 430.90625 619.476562 433.355469 C 616.960938 435.804688 613.964844 437.742188 610.496094 439.171875 C 607.027344 440.601562 603.316406 441.316406 599.371094 441.316406 C 595.425781 441.316406 591.714844 440.601562 588.246094 439.171875 C 584.777344 437.742188 581.746094 435.804688 579.160156 433.355469 C 576.644531 430.90625 574.636719 428.015625 573.140625 424.679688 C 571.710938 421.277344 570.996094 417.640625 570.996094 413.761719 Z M 599.371094 429.171875 C 603.453125 429.171875 606.921875 427.675781 609.78125 424.679688 C 612.640625 421.6875 614.066406 418.046875 614.066406 413.761719 C 614.066406 409.40625 612.640625 405.734375 609.78125 402.738281 C 606.921875 399.746094 603.453125 398.25 599.371094 398.25 C 595.289062 398.25 591.816406 399.746094 588.960938 402.738281 C 586.101562 405.734375 584.671875 409.40625 584.671875 413.761719 C 584.671875 418.046875 586.101562 421.6875 588.960938 424.679688 C 591.816406 427.675781 595.289062 429.171875 599.371094 429.171875 Z M 662.765625 429.070312 C 665.144531 429.070312 667.359375 428.59375 669.398438 427.640625 C 671.507812 426.6875 673.515625 425.191406 675.421875 423.148438 L 683.789062 431.824219 C 681.070312 434.816406 677.800781 437.164062 673.992188 438.867188 C 670.179688 440.5 666.234375 441.316406 662.152344 441.316406 C 658.273438 441.316406 654.597656 440.601562 651.128906 439.171875 C 647.726562 437.742188 644.765625 435.804688 642.25 433.355469 C 639.800781 430.90625 637.859375 428.015625 636.433594 424.679688 C 635.003906 421.277344 634.289062 417.640625 634.289062 413.761719 C 634.289062 409.882812 635.003906 406.277344 636.433594 402.945312 C 637.859375 399.542969 639.800781 396.617188 642.25 394.167969 C 644.765625 391.648438 647.726562 389.675781 651.128906 388.25 C 654.597656 386.820312 658.273438 386.105469 662.152344 386.105469 C 666.371094 386.105469 670.417969 386.957031 674.296875 388.65625 C 678.175781 390.289062 681.476562 392.601562 684.199219 395.597656 L 675.625 404.679688 C 673.71875 402.570312 671.679688 400.972656 669.5 399.882812 C 667.324219 398.792969 664.976562 398.25 662.457031 398.25 C 658.445312 398.25 655.042969 399.746094 652.253906 402.738281 C 649.53125 405.734375 648.167969 409.40625 648.167969 413.761719 C 648.167969 418.117188 649.5625 421.753906 652.355469 424.679688 C 655.210938 427.605469 658.683594 429.070312 662.765625 429.070312 Z M 691.058594 440.292969 L 691.058594 368.859375 L 705.042969 365.796875 L 705.042969 409.578125 L 728.007812 387.125 L 743.828125 387.125 L 718.921875 411.515625 L 745.359375 440.292969 L 727.496094 440.292969 L 705.042969 416.007812 L 705.042969 440.292969 Z M 764.457031 442.742188 L 765.273438 440.804688 L 744.554688 387.125 L 759.964844 387.125 L 773.132812 423.355469 L 788.242188 387.125 L 803.339844 387.125 L 778.84375 444.476562 C 776.128906 450.875 772.964844 455.429688 769.355469 458.152344 C 765.75 460.875 761.054688 462.234375 755.273438 462.234375 C 754.046875 462.234375 752.855469 462.167969 751.699219 462.03125 C 750.609375 461.960938 749.726562 461.828125 749.046875 461.621094 L 749.046875 449.582031 C 749.726562 449.71875 750.441406 449.820312 751.1875 449.886719 C 751.9375 449.953125 752.855469 449.988281 753.945312 449.988281 C 756.460938 449.988281 758.570312 449.375 760.273438 448.152344 C 762.042969 446.925781 763.4375 445.125 764.457031 442.742188 Z M 831.152344 440.292969 L 831.152344 368.859375 L 839.019531 368.859375 L 839.019531 433.253906 L 881.578125 433.253906 L 881.578125 440.292969 Z M 895.101562 379.371094 C 893.738281 379.371094 892.546875 378.859375 891.527344 377.839844 C 890.507812 376.820312 889.996094 375.628906 889.996094 374.269531 C 889.996094 372.839844 890.507812 371.648438 891.527344 370.695312 C 892.546875 369.675781 893.738281 369.164062 895.101562 369.164062 C 896.53125 369.164062 897.722656 369.675781 898.671875 370.695312 C 899.691406 371.648438 900.203125 372.839844 900.203125 374.269531 C 900.203125 375.628906 899.691406 376.820312 898.671875 377.839844 C 897.722656 378.859375 896.53125 379.371094 895.101562 379.371094 Z M 898.886719 389.167969 L 898.886719 440.292969 L 891.328125 440.292969 L 891.328125 389.167969 Z M 911.757812 440.292969 L 911.757812 389.167969 L 919.3125 389.167969 L 919.3125 395.1875 C 921.28125 392.875 923.636719 391.140625 926.359375 389.984375 C 929.078125 388.757812 932.097656 388.148438 935.445312 388.148438 C 941.226562 388.148438 945.949219 389.984375 949.621094 393.65625 C 953.304688 397.332031 955.132812 402.09375 955.132812 407.945312 L 955.132812 440.292969 L 947.691406 440.292969 L 947.691406 409.476562 C 947.691406 404.984375 946.386719 401.414062 943.808594 398.761719 C 941.226562 396.105469 937.753906 394.78125 933.402344 394.78125 C 930.339844 394.78125 927.578125 395.460938 925.125 396.820312 C 922.742188 398.179688 920.816406 400.121094 919.3125 402.636719 L 919.3125 440.292969 Z M 974.527344 389.167969 L 974.527344 419.984375 C 974.527344 424.476562 975.816406 428.046875 978.398438 430.703125 C 980.992188 433.355469 984.464844 434.679688 988.816406 434.679688 C 991.878906 434.679688 994.601562 434 996.980469 432.640625 C 999.433594 431.210938 1001.402344 429.238281 1002.894531 426.722656 L 1002.894531 389.167969 L 1010.449219 389.167969 L 1010.449219 440.292969 L 1002.894531 440.292969 L 1002.894531 434.375 C 1000.921875 436.6875 998.582031 438.421875 995.863281 439.578125 C 993.195312 440.738281 990.207031 441.316406 986.875 441.316406 C 981.019531 441.316406 976.257812 439.476562 972.585938 435.804688 C 968.914062 432.128906 967.070312 427.367188 967.070312 421.515625 L 967.070312 389.167969 Z M 1017.378906 440.292969 L 1037.480469 413.964844 L 1018.402344 389.167969 L 1027.375 389.167969 L 1041.875 408.351562 L 1056.363281 389.167969 L 1065.039062 389.167969 L 1046.15625 413.863281 L 1066.371094 440.292969 L 1057.382812 440.292969 L 1041.761719 419.476562 L 1025.941406 440.292969 Z M 1017.378906 440.292969 " fill-opacity="1" fill-rule="nonzero"/><path fill="#ffffff" d="M 1073.035156 387.585938 L 1073.035156 376.496094 L 1069.363281 376.496094 L 1069.363281 374.351562 L 1073.035156 374.351562 L 1073.035156 370.03125 L 1075.515625 369.386719 L 1075.515625 374.351562 L 1080.660156 374.351562 L 1080.660156 376.496094 L 1075.515625 376.496094 L 1075.515625 386.9375 C 1075.515625 387.847656 1075.726562 388.503906 1076.125 388.910156 C 1076.535156 389.296875 1077.203125 389.492188 1078.136719 389.492188 C 1078.621094 389.492188 1079.03125 389.457031 1079.398438 389.386719 C 1079.78125 389.320312 1080.195312 389.207031 1080.617188 389.046875 L 1080.617188 391.257812 C 1080.195312 391.417969 1079.695312 391.53125 1079.160156 391.597656 C 1078.632812 391.667969 1078.125 391.703125 1077.628906 391.703125 C 1076.152344 391.703125 1075.019531 391.351562 1074.226562 390.648438 C 1073.429688 389.945312 1073.035156 388.921875 1073.035156 387.585938 Z M 1083.355469 391.394531 L 1083.355469 374.351562 L 1085.863281 374.351562 L 1085.863281 376.222656 C 1086.5 375.5 1087.238281 374.953125 1088.074219 374.589844 C 1088.925781 374.207031 1089.847656 374.011719 1090.867188 374.011719 C 1092.042969 374.011719 1093.109375 374.296875 1094.027344 374.863281 C 1094.992188 375.40625 1095.730469 376.15625 1096.242188 377.109375 C 1096.949219 376.066406 1097.785156 375.292969 1098.761719 374.796875 C 1099.753906 374.273438 1100.875 374.011719 1102.09375 374.011719 C 1103.9375 374.011719 1105.425781 374.625 1106.589844 375.847656 C 1107.765625 377.074219 1108.359375 378.660156 1108.359375 380.613281 L 1108.359375 391.394531 L 1105.878906 391.394531 L 1105.878906 381.121094 C 1105.878906 379.625 1105.484375 378.433594 1104.6875 377.550781 C 1103.894531 376.664062 1102.816406 376.222656 1101.457031 376.222656 C 1100.519531 376.222656 1099.671875 376.460938 1098.90625 376.9375 C 1098.125 377.414062 1097.472656 378.105469 1096.921875 379.011719 C 1096.976562 379.261719 1097.003906 379.523438 1097.035156 379.796875 C 1097.078125 380.046875 1097.089844 380.316406 1097.089844 380.613281 L 1097.089844 391.394531 L 1094.609375 391.394531 L 1094.609375 381.121094 C 1094.609375 379.625 1094.214844 378.433594 1093.417969 377.550781 C 1092.625 376.664062 1091.5625 376.222656 1090.230469 376.222656 C 1089.324219 376.222656 1088.484375 376.4375 1087.734375 376.871094 C 1087.011719 377.277344 1086.386719 377.890625 1085.863281 378.707031 L 1085.863281 391.394531 Z M 1083.355469 391.394531 " fill-opacity="1" fill-rule="nonzero"/></svg>